<svg width="200" height="200" viewBox="0 0 200 200" fill="none" xmlns="http://www.w3.org/2000/svg" role="img" aria-labelledby="logo-title">
<title id="logo-title">Amy</title>
<path d="M83.108 55.2717C77.6128 46.1261 80.572 34.2575 89.7175 28.7623C98.863 23.2671 110.732 26.2263 116.227 35.3718L181.681 144.305C187.176 153.451 184.217 165.32 175.071 170.815C165.926 176.31 154.057 173.351 148.562 164.205L83.108 55.2717Z" fill="#0D9488"/>
<path d="M50.5375 90.7171C57.9497 78.1802 76.0897 78.1803 83.5018 90.7171L115.345 144.576C122.891 157.34 113.691 173.468 98.8628 173.468C91.7743 173.468 83.0757 169.915 74.2813 165.227C71.8287 163.919 69.1048 163.186 66.3255 163.186C63.3031 163.186 60.3577 164.065 57.7046 165.512C50.0736 169.676 40.5042 173.468 35.1765 173.468C20.3487 173.468 11.148 157.34 18.6944 144.576L50.5375 90.7171Z" fill="#0D9488"/>
</svg>
